<?xml version="1.0" encoding="utf-8"?>
<!-- Generator: Adobe Illustrator 23.0.1, SVG Export Plug-In . SVG Version: 6.00 Build 0)  -->
<svg version="1.1"
	 id="svg8037" xmlns:cc="http://creativecommons.org/ns#" xmlns:dc="http://purl.org/dc/elements/1.1/" xmlns:inkscape="http://www.inkscape.org/namespaces/inkscape" xmlns:rdf="http://www.w3.org/1999/02/22-rdf-syntax-ns#" xmlns:sodipodi="http://sodipodi.sourceforge.net/DTD/sodipodi-0.dtd" xmlns:svg="http://www.w3.org/2000/svg"
	 xmlns="http://www.w3.org/2000/svg" xmlns:xlink="http://www.w3.org/1999/xlink" x="0px" y="0px" viewBox="0 0 60.3 53.6"
	 style="enable-background:new 0 0 60.3 53.6;" xml:space="preserve">
<style type="text/css">
	.st0{fill:#DADADA;}
	.st1{fill:#41404D;}
	.st2{fill:#FFFFFF;}
	.st3{fill:#50D8AF;}
	.st4{fill:#0C2E8A;}
</style>
<sodipodi:namedview  bordercolor="#666666" borderopacity="1.0" fit-margin-bottom="1" fit-margin-left="1" fit-margin-right="1" fit-margin-top="1" id="base" inkscape:current-layer="layer1" inkscape:cx="56.228605" inkscape:cy="48.381821" inkscape:document-rotation="0" inkscape:document-units="mm" inkscape:pageopacity="0.0" inkscape:pageshadow="2" inkscape:window-height="1025" inkscape:window-maximized="1" inkscape:window-width="1853" inkscape:window-x="67" inkscape:window-y="27" inkscape:zoom="1.33" pagecolor="#ffffff" showgrid="false">
	</sodipodi:namedview>
<g id="layer1" transform="translate(-90.956194,-63.749101)" inkscape:groupmode="layer" inkscape:label="Capa 1">
	<g id="g14571" transform="matrix(0.35277777,0,0,-0.35277777,-48.937638,121.67087)">
		<g id="g1664" transform="translate(421.6545,121.8854)">
			<path id="path1666" class="st0" d="M46.1-77.6l-3.3,34L30-48.9l-5.9-38.3c-0.4-2.9,0.7-5.7,2.8-7.5l24.4,10.2
				C48.4-83.4,46.4-80.7,46.1-77.6"/>
		</g>
		<g id="g1668" transform="translate(416.2224,131.8347)">
			<path id="path1670" class="st1" d="M36.1-59.4l-5.8-37.9c-0.5-3.2,1.1-6.4,4-7.9l8.8-4.6c0.9-0.5,2-0.5,3-0.1l22,9.2
				c0.3,0.1,0.4,0.5,0.4,0.6c0,0.1,0,0.4-0.4,0.5l-11.5,4.3c-3.3,1.2-5.5,4.2-5.8,7.6l-3.2,33L36.1-59.4z M44.7-111.6
				c-0.8,0-1.6,0.2-2.3,0.6l-8.8,4.6c-3.4,1.8-5.4,5.6-4.8,9.4l5.9,38.3c0,0.3,0.2,0.5,0.5,0.6l12.8,5.3c0.2,0.1,0.5,0.1,0.7,0
				c0.2-0.1,0.3-0.3,0.4-0.6l3.3-34c0.3-2.9,2.2-5.3,4.9-6.4l11.5-4.3c0.8-0.3,1.3-1.1,1.4-1.9c0-0.9-0.5-1.6-1.3-2l-22-9.2
				C46-111.5,45.3-111.6,44.7-111.6"/>
		</g>
		<g id="g1672" transform="translate(402.4621,115.3683)">
			<path id="path1674" class="st1" d="M10.8-89.6c-0.1,0-0.2,0-0.3,0.1l-6.3,3.2c-1.3,0.8-2.1,2.2-2.1,3.6v77.2
				c0,3.6,2.1,6.8,5.4,8.2l68.9,28.8c0.4,0.2,0.8,0,1-0.4c0.2-0.4,0-0.8-0.4-1L8.1,1.3C5.4,0.1,3.6-2.5,3.6-5.5v-77.2
				c0-1,0.5-1.8,1.3-2.3l6.3-3.1c0.4-0.2,0.5-0.6,0.3-1C11.4-89.4,11.1-89.6,10.8-89.6"/>
		</g>
		<g id="g1676" transform="translate(429.0686,158.9509)">
			<path id="path1678" class="st1" d="M59.7-9.6c-0.3,0-0.6,0.2-0.7,0.5c-0.2,0.4,0,0.8,0.4,1L71-3.5c1.1,0.5,3.5,1.1,5,0.3l5.9-2.7
				c0.4-0.2,0.5-0.6,0.4-1s-0.6-0.5-1-0.4l-5.9,2.7c-0.8,0.4-2.6,0.1-3.8-0.4L59.9-9.6C59.8-9.6,59.8-9.6,59.7-9.6"/>
		</g>
		<g id="g1680" transform="translate(403.4148,146.6452)">
			<path id="path1682" class="st2" d="M12.6-32.2l91.6,38.1c2.3,1,4.8-0.7,4.8-3.2v-76.6c0-3.2-1.9-6.2-4.9-7.4L12.5-120
				c-2.3-1-4.8,0.7-4.8,3.2v77.2C7.6-36.4,9.6-33.4,12.6-32.2"/>
		</g>
		<g id="g1684" transform="translate(405.0529,143.9362)">
			<path id="path1686" class="st0" d="M15.6-37.2v9.6l4.5,1.9v-9.6L15.6-37.2z"/>
		</g>
		<g id="g1688" transform="translate(435.7434,160.0954)">
			<path id="path1690" class="st1" d="M71.9-7.5L71.9-7.5L71.9-7.5z M73.3-8c-0.4,0-0.7-0.1-1.1-0.2l-91.6-38.1
				c-2.7-1.1-4.5-3.8-4.5-6.8v-77.2c0-0.9,0.4-1.8,1.2-2.3c0.8-0.5,1.7-0.6,2.6-0.2l91.7,38.7c2.7,1.1,4.5,3.8,4.5,6.8v76.6
				c0,0.9-0.4,1.8-1.2,2.3C74.3-8.1,73.8-8,73.3-8 M-21.2-134.5c-0.8,0-1.6,0.2-2.3,0.7c-1.2,0.8-1.9,2.1-1.9,3.5v77.2
				c0,3.6,2.1,6.8,5.4,8.1L71.6-6.8c1.3,0.5,2.8,0.4,4-0.4c1.2-0.8,1.9-2.1,1.9-3.5v-76.6c0-3.6-2.1-6.8-5.4-8.1l-91.7-38.7
				C-20.1-134.4-20.7-134.5-21.2-134.5"/>
		</g>
		<g id="g1692" transform="translate(418.2224,125.6335)">
			<path id="path1694" class="st0" d="M39.8-70.7v8.1l4.5,1.9v-8.1L39.8-70.7z"/>
		</g>
		<g id="g1696" transform="translate(437.4455,133.7497)">
			<path id="path1698" class="st0" d="M75-55.8L-26.4-98.7"/>
		</g>
		<g id="g1700" transform="translate(401.6599,118.3727)">
			<path id="path1702" class="st1" d="M9.4-84.1c-0.3,0-0.6,0.2-0.7,0.5c-0.2,0.4,0,0.8,0.4,1l101.4,42.8c0.4,0.2,0.8,0,1-0.4
				c0.2-0.4,0-0.8-0.4-1L9.7-84C9.6-84,9.5-84.1,9.4-84.1"/>
		</g>
		<g id="g1704" transform="translate(437.4455,133.7497)">
			<path id="path1706" class="st0" d="M75-55.8V-61c0-3.2-1.9-6.2-4.9-7.4l-91.6-38.7c-2.3-1-4.8,0.7-4.8,3.2v5.3L75-55.8z"/>
		</g>
		<g id="g1708" transform="translate(401.9255,118.4621)">
			<path id="path1710" class="st1" d="M9.9-83.9v-4.8c0-0.9,0.4-1.7,1.2-2.3c0.8-0.5,1.7-0.6,2.6-0.3l91.6,38.7
				c2.7,1.1,4.5,3.8,4.5,6.7v4L9.9-83.9z M12.6-92.9c-0.8,0-1.7,0.2-2.4,0.7c-1.2,0.8-1.9,2.1-1.9,3.5v5.3c0,0.3,0.2,0.6,0.5,0.7
				l101.4,42.8c0.2,0.1,0.5,0.1,0.7-0.1c0.2-0.1,0.3-0.4,0.3-0.6v-5.2c0-3.6-2.1-6.8-5.4-8.1L14.3-92.5
				C13.7-92.8,13.2-92.9,12.6-92.9"/>
		</g>
		<g id="g1712" transform="translate(404.2732,143.612)">
			<path id="path1714" class="st3" d="M14.2-37.7l87.7,36.5v-59.2l-87.7-37V-37.7z"/>
		</g>
		<g id="g1716" transform="translate(404.5388,143.4348)">
			<path id="path1718" class="st1" d="M14.7-38.1v-58.1l86.2,36.4v57.6L14.7-38.1z M13.9-98c-0.1,0-0.3,0-0.4,0.1
				c-0.2,0.1-0.3,0.4-0.3,0.6v59.7c0,0.3,0.2,0.6,0.5,0.7l87.7,36.5c0.2,0.1,0.5,0.1,0.7-0.1c0.2-0.1,0.3-0.4,0.3-0.6v-59.2
				c0-0.3-0.2-0.6-0.5-0.7L14.2-98C14.1-98,14-98,13.9-98"/>
		</g>
		<g id="g1720" transform="translate(401.6599,118.6389)">
			<path id="path1722" class="st2" d="M9.4-83.6l101.4,42.8"/>
		</g>
		<g id="g1724" transform="translate(401.6599,118.3737)">
			<path id="path1726" class="st1" d="M9.4-84.1c-0.3,0-0.6,0.2-0.7,0.5c-0.2,0.4,0,0.8,0.4,1l101.4,42.8c0.4,0.2,0.8,0,1-0.4
				c0.2-0.4,0-0.8-0.4-1L9.7-84C9.6-84,9.5-84.1,9.4-84.1"/>
		</g>
		<g id="g1728" transform="translate(420.6677,146.0012)">
			<path id="path1730" class="st2" d="M44.2-33.4l81.6,33.9c1.6,0.7,3.4-0.5,3.4-2.3v-52.5c0-1.8-1.1-3.4-2.7-4.1L45.3-92.6
				c-1.8-0.8-3.8,0.6-3.8,2.5v52.6C41.5-35.7,42.6-34.1,44.2-33.4"/>
		</g>
		<g id="g1732" transform="translate(407.6057,155.2502)">
			<path id="path1734" class="st2" d="M20.3-16.4L44.1-6.3C46-5.5,48.2-6.9,48.2-9v-51.8c0-1.8-1-3.4-2.7-4.1L21.8-75.4
				c-2-0.9-4.2,0.6-4.2,2.8v52.1C17.6-18.7,18.6-17.1,20.3-16.4"/>
		</g>
		<g id="g1736" transform="translate(407.6062,155.2502)">
			<path id="path1738" class="st1" d="M20.3-16.4L20.3-16.4L20.3-16.4z M45.3-6.8c-0.3,0-0.6-0.1-0.9-0.2L20.6-17.1
				c-1.4-0.6-2.3-1.9-2.3-3.4v-52.1c0-0.8,0.4-1.5,1-1.9c0.7-0.4,1.4-0.5,2.2-0.2l23.7,10.5c1.3,0.6,2.2,1.9,2.2,3.4V-9
				c0,0.7-0.4,1.4-1,1.8C46.1-6.9,45.7-6.8,45.3-6.8 M20.6-76.4c-0.7,0-1.4,0.2-2.1,0.6c-1.1,0.7-1.7,1.9-1.7,3.2v52.1
				c0,2.1,1.3,4,3.2,4.8L43.8-5.6c1.1,0.5,2.4,0.4,3.5-0.3c1-0.7,1.7-1.8,1.7-3.1v-51.8c0-2.1-1.2-3.9-3.1-4.8L22.1-76.1
				C21.6-76.3,21.1-76.4,20.6-76.4"/>
		</g>
		<g id="g1740" transform="translate(415.6203,151.528)">
			<path id="path1742" class="st4" d="M35-23.2l-19.4-8.1v-5.3L35-28.5L35-23.2z"/>
		</g>
		<g id="g1744" transform="translate(409.0261,148.4963)">
			<path id="path1746" class="st1" d="M22.9-28.8v-3.7L40.8-25l0,3.7L22.9-28.8z M22.1-34.3c-0.1,0-0.3,0-0.4,0.1
				c-0.2,0.1-0.3,0.4-0.3,0.6v5.3c0,0.3,0.2,0.6,0.5,0.7l19.4,8.1c0.2,0.1,0.5,0.1,0.7-0.1c0.2-0.1,0.3-0.4,0.3-0.6l0-5.3
				c0-0.3-0.2-0.6-0.5-0.7l-19.4-8.1C22.3-34.3,22.2-34.3,22.1-34.3"/>
		</g>
		<g id="g1748" transform="translate(415.6203,148.2766)">
			<path id="path1750" class="st3" d="M35-29.2l-19.4-8.1v-5.3L35-34.5L35-29.2z"/>
		</g>
		<g id="g1752" transform="translate(409.0261,145.2453)">
			<path id="path1754" class="st1" d="M22.9-34.8v-3.7L40.8-31l0,3.7L22.9-34.8z M22.1-40.3c-0.1,0-0.3,0-0.4,0.1
				c-0.2,0.1-0.3,0.4-0.3,0.6v5.3c0,0.3,0.2,0.6,0.5,0.7l19.4,8.1c0.2,0.1,0.5,0.1,0.7-0.1c0.2-0.1,0.3-0.4,0.3-0.6l0-5.3
				c0-0.3-0.2-0.6-0.5-0.7l-19.4-8.1C22.3-40.3,22.2-40.3,22.1-40.3"/>
		</g>
		<g id="g1756" transform="translate(410.7444,139.4753)">
			<path id="path1758" class="st1" d="M26-45.3c-0.3,0-0.6,0.2-0.7,0.5c-0.2,0.4,0,0.8,0.4,1l8.2,3.4c0.4,0.2,0.8,0,1-0.4
				c0.2-0.4,0-0.8-0.4-1l-8.2-3.4C26.2-45.3,26.1-45.3,26-45.3"/>
		</g>
		<g id="g1760" transform="translate(406.9328,152.5295)">
			<path id="path1762" class="st1" d="M19-21.4c-0.3,0-0.6,0.2-0.7,0.5c-0.2,0.4,0,0.8,0.4,1L48.6-7.5c0.4,0.2,0.8,0,1-0.4
				c0.2-0.4,0-0.8-0.4-1L19.3-21.3C19.2-21.4,19.1-21.4,19-21.4"/>
		</g>
		<g id="g1764" transform="translate(450.6477,137.5944)">
			<path id="path1766" class="st0" d="M99.3-48.8v30.2l-23.2-9.9c-1.7-0.7-2.7-2.3-2.7-4.1v-27.1L99.3-48.8z"/>
		</g>
		<g id="g1768" transform="translate(449.4392,157.9714)">
			<path id="path1770" class="st1" d="M97-11.4L97-11.4L97-11.4z M98-12c-0.2,0-0.5,0-0.7-0.1L15.8-46c-1.4-0.6-2.3-1.9-2.3-3.4
				v-52.6c0-0.7,0.3-1.3,0.9-1.7c0.6-0.4,1.2-0.4,1.9-0.2l81.2,34.3c1.4,0.6,2.3,1.9,2.3,3.4v52.5c0,0.6-0.3,1.1-0.8,1.4
				C98.6-12.1,98.3-12,98-12 M15.5-105.6c-0.7,0-1.3,0.2-1.9,0.6c-1,0.6-1.6,1.7-1.6,2.9v52.6c0,2.1,1.3,4,3.2,4.8l81.6,33.9
				c1,0.4,2.1,0.3,3-0.3c0.9-0.6,1.4-1.6,1.4-2.7v-52.5c0-2.1-1.3-4-3.2-4.8l-81.2-34.3C16.4-105.5,15.9-105.6,15.5-105.6"/>
		</g>
		<g id="g1772" transform="translate(447.7697,152.3586)">
			<path id="path1774" class="st1" d="M94-21.7c-0.3,0-0.6-0.1-0.9-0.2l-36-15.4c-1.4-0.6-2.3-1.9-2.3-3.4v-42l41.3,17.4v41.4
				c0,0.7-0.4,1.4-1,1.8C94.8-21.8,94.4-21.7,94-21.7 M54.1-84.6c-0.1,0-0.3,0-0.4,0.1c-0.2,0.1-0.3,0.4-0.3,0.6v43.1
				c0,2.1,1.3,4,3.2,4.8l36,15.4c1.2,0.5,2.5,0.4,3.5-0.3c1-0.7,1.6-1.8,1.6-3.1v-41.9c0-0.3-0.2-0.6-0.5-0.7l-42.8-18
				C54.3-84.6,54.2-84.6,54.1-84.6"/>
		</g>
		<g id="g1776" transform="translate(423.1506,142.364)">
			<path id="path1778" class="st2" d="M48.8-40l20.5,8.7c1.7,0.7,3.5-0.5,3.5-2.3v-42.7L46.5-87.5v43.9C46.5-42,47.4-40.6,48.8-40"
				/>
		</g>
		<g id="g1780" transform="translate(423.1511,142.3635)">
			<path id="path1782" class="st1" d="M48.8-40L48.8-40L48.8-40z M70.3-31.9c-0.2,0-0.5,0-0.7-0.1l-20.5-8.7
				c-1.1-0.5-1.9-1.6-1.9-2.8v-42.7L72-75.8v42.2c0,0.6-0.3,1.1-0.8,1.5C70.9-32,70.6-31.9,70.3-31.9 M46.5-88.2
				c-0.1,0-0.3,0-0.4,0.1c-0.2,0.1-0.3,0.4-0.3,0.6v43.9c0,1.9,1.1,3.5,2.8,4.2L69-30.6c1,0.4,2.2,0.3,3.1-0.3
				c0.9-0.6,1.5-1.6,1.5-2.7v-42.7c0-0.3-0.2-0.6-0.5-0.7L46.8-88.1C46.7-88.2,46.6-88.2,46.5-88.2"/>
		</g>
		<g id="g1784" transform="translate(424.2951,133.2482)">
			<path id="path1786" class="st1" d="M50.9-56.8c-0.3,0-0.6,0.2-0.7,0.5c-0.2,0.4,0,0.8,0.4,1l16.3,6.8c0.4,0.2,0.8,0,1-0.4
				c0.2-0.4,0-0.8-0.4-1l-16.3-6.8C51.1-56.7,51-56.8,50.9-56.8"/>
		</g>
		<g id="g1788" transform="translate(436.153,139.3742)">
			<path id="path1790" class="st3" d="M72.7-45.5l24.2,10v-16.3L72.7-62V-45.5z"/>
		</g>
		<g id="g1792" transform="translate(436.4182,139.1965)">
			<path id="path1794" class="st1" d="M73.1-45.8v-14.8l22.7,9.6v14.7L73.1-45.8z M72.4-62.5c-0.1,0-0.3,0-0.4,0.1
				c-0.2,0.1-0.3,0.4-0.3,0.6v16.4c0,0.3,0.2,0.6,0.5,0.7l24.2,10.1c0.2,0.1,0.5,0.1,0.7-0.1c0.2-0.1,0.3-0.4,0.3-0.6v-16.3
				c0-0.3-0.2-0.6-0.5-0.7L72.7-62.5C72.6-62.5,72.5-62.5,72.4-62.5"/>
		</g>
		<g id="g1796" transform="translate(425.5935,132.0388)">
			<path id="path1798" class="st1" d="M53.3-59c-0.3,0-0.6,0.2-0.7,0.5c-0.2,0.4,0,0.8,0.4,1l8.9,3.7c0.4,0.2,0.8,0,1-0.4
				c0.2-0.4,0-0.8-0.4-1l-8.9-3.7C53.5-59,53.4-59,53.3-59"/>
		</g>
		<g id="g1800" transform="translate(436.1765,144.1447)">
			<path id="path1802" class="st1" d="M72.7-36.8c-0.3,0-0.6,0.2-0.7,0.5c-0.2,0.4,0,0.8,0.4,1l28.7,12c0.4,0.2,0.8,0,1-0.4
				c0.2-0.4,0-0.8-0.4-1L73-36.7C72.9-36.8,72.8-36.8,72.7-36.8"/>
		</g>
		<g id="g1804" transform="translate(419.695,143.2712)">
			<path id="path1806" class="st1" d="M42.5-38.4c-0.3,0-0.6,0.2-0.7,0.5c-0.2,0.4,0,0.8,0.4,1l87.1,36.2c0.4,0.2,0.8,0,1-0.4
				c0.2-0.4,0-0.8-0.4-1L42.8-38.3C42.7-38.4,42.6-38.4,42.5-38.4"/>
		</g>
		<g id="g1808" transform="translate(428.7478,138.3625)">
			<path id="path1810" class="st4" d="M59.1-47.4c-1.3-3.2-4.4-4.9-6.9-3.9c-2.5,1-3.4,4.5-2.1,7.6c1.3,3.2,4.4,4.9,6.9,3.9
				C59.5-40.8,60.4-44.2,59.1-47.4"/>
		</g>
		<g id="g1812" transform="translate(427.4734,140.8962)">
			<path id="path1814" class="st1" d="M56.7-42.7c-1.8,0-3.7-1.5-4.7-3.7c-1.2-2.8-0.4-5.8,1.7-6.7c2.1-0.9,4.8,0.7,5.9,3.5
				c1.2,2.8,0.4,5.8-1.7,6.7C57.6-42.8,57.2-42.7,56.7-42.7 M54.9-54.9c-0.6,0-1.2,0.1-1.8,0.4c-2.9,1.2-4,5.1-2.5,8.6
				c1.5,3.6,5,5.5,7.9,4.3c2.9-1.2,4-5.1,2.5-8.6C59.9-53,57.4-54.9,54.9-54.9"/>
		</g>
		<g id="g1816" transform="translate(443.947,144.071)">
			<path id="path1818" class="st3" d="M87-36.9l24.8,10.5c1.5,0.6,3.1-0.5,3.1-2V-62c0-1.8-1-3.4-2.7-4.1l-24.8-11
				c-1.5-0.6-3.1,0.4-3.1,2V-41C84.2-39.2,85.3-37.6,87-36.9"/>
		</g>
		<g id="g1820" transform="translate(443.947,144.0715)">
			<path id="path1822" class="st1" d="M87-36.9L87-36.9L87-36.9z M112.6-26.9c-0.2,0-0.4,0-0.6-0.1L87.3-37.6
				C85.9-38.2,85-39.5,85-41v-34.1c0-0.5,0.2-1,0.7-1.2c0.4-0.3,0.9-0.3,1.4-0.1l24.8,11c1.3,0.6,2.2,1.9,2.2,3.4v33.6
				c0,0.5-0.2,0.9-0.7,1.2C113.2-27,112.9-26.9,112.6-26.9 M86.5-78.1c-0.6,0-1.1,0.2-1.6,0.5c-0.8,0.6-1.4,1.5-1.4,2.5V-41
				c0,2.1,1.2,4,3.2,4.8l24.8,10.5c0.9,0.4,2,0.3,2.8-0.3c0.8-0.6,1.3-1.5,1.3-2.5V-62c0-2.1-1.2-3.9-3.1-4.8l-24.8-11
				C87.3-78,86.9-78.1,86.5-78.1"/>
		</g>
		<g id="g1824" transform="translate(444.9787,142.0558)">
			<path id="path1826" class="st2" d="M88.9-40.6l20.5,8.8V-41l-20.5-9V-40.6z"/>
		</g>
		<g id="g1828" transform="translate(445.2444,141.8806)">
			<path id="path1830" class="st1" d="M89.3-40.9v-7.7l19,8.3v7.6L89.3-40.9z M88.6-50.5c-0.1,0-0.3,0-0.4,0.1
				c-0.2,0.1-0.3,0.4-0.3,0.6v9.4c0,0.3,0.2,0.6,0.5,0.7l20.5,8.8c0.2,0.1,0.5,0.1,0.7-0.1c0.2-0.1,0.3-0.4,0.3-0.6v-9.2
				c0-0.3-0.2-0.6-0.5-0.7l-20.5-9C88.8-50.5,88.7-50.5,88.6-50.5"/>
		</g>
		<g id="g1832" transform="translate(445.9353,136.1838)">
			<path id="path1834" class="st1" d="M90.6-51.4c-0.3,0-0.6,0.2-0.7,0.5c-0.2,0.4,0,0.8,0.4,1l16.3,6.8c0.4,0.2,0.8,0,1-0.4
				c0.2-0.4,0-0.8-0.4-1l-16.3-6.8C90.8-51.4,90.7-51.4,90.6-51.4"/>
		</g>
		<g id="g1836" transform="translate(447.2351,134.9743)">
			<path id="path1838" class="st1" d="M93-53.6c-0.3,0-0.6,0.2-0.7,0.5c-0.2,0.4,0,0.8,0.4,1l8.9,3.7c0.4,0.2,0.8,0,1-0.4
				c0.2-0.4,0-0.8-0.4-1l-8.9-3.7C93.2-53.6,93.1-53.6,93-53.6"/>
		</g>
	</g>
</g>
</svg>
