<?xml version="1.0" encoding="utf-8"?>
<!-- Generator: Adobe Illustrator 23.0.1, SVG Export Plug-In . SVG Version: 6.00 Build 0)  -->
<svg version="1.1"
	 id="svg8037" inkscape:version="1.0.1 (1.0.1+r73)" sodipodi:docname="design_17.svg" xmlns:cc="http://creativecommons.org/ns#" xmlns:dc="http://purl.org/dc/elements/1.1/" xmlns:inkscape="http://www.inkscape.org/namespaces/inkscape" xmlns:rdf="http://www.w3.org/1999/02/22-rdf-syntax-ns#" xmlns:sodipodi="http://sodipodi.sourceforge.net/DTD/sodipodi-0.dtd" xmlns:svg="http://www.w3.org/2000/svg"
	 xmlns="http://www.w3.org/2000/svg" xmlns:xlink="http://www.w3.org/1999/xlink" x="0px" y="0px" viewBox="0 0 56.4 40.1"
	 style="enable-background:new 0 0 56.4 40.1;" xml:space="preserve">
<style type="text/css">
	.st0{fill:#DADADA;}
	.st1{fill:#41404D;}
	.st2{fill:#FFFFFF;}
	.st3{fill:#0C2E8A;}
	.st4{fill:#7AFFFF;}
</style>
<sodipodi:namedview  bordercolor="#666666" borderopacity="1.0" fit-margin-bottom="1" fit-margin-left="1" fit-margin-right="1" fit-margin-top="1" id="base" inkscape:current-layer="layer1" inkscape:cx="22.313271" inkscape:cy="54.04412" inkscape:document-rotation="0" inkscape:document-units="mm" inkscape:pageopacity="0.0" inkscape:pageshadow="2" inkscape:window-height="1025" inkscape:window-maximized="1" inkscape:window-width="1853" inkscape:window-x="67" inkscape:window-y="27" inkscape:zoom="1.33" pagecolor="#ffffff" showgrid="false">
	</sodipodi:namedview>
<g id="layer1" transform="translate(-99.929626,-62.25095)" inkscape:groupmode="layer" inkscape:label="Capa 1">
	<g id="g13159" transform="matrix(0.35277777,0,0,-0.35277777,-95.288368,152.59827)">
		<g id="g2796" transform="translate(606.2156,227.2565)">
			<path id="path2798" class="st0" d="M96.9-52.9H-19.8c-0.7,0-1.2,0.5-1.2,1.2v70.6c0,0.7,0.5,1.2,1.2,1.2H96.9
				c0.7,0,1.2-0.5,1.2-1.2v-70.6C98.2-52.4,97.6-52.9,96.9-52.9"/>
		</g>
		<g id="g2800" transform="translate(565.4719,252.737)">
			<path id="path2802" class="st1" d="M22.2-6.2c-1,0-1.7-0.8-1.7-1.7v-68c0-1,0.8-1.7,1.7-1.7h114.2c1,0,1.7,0.8,1.7,1.7v68
				c0,1-0.8,1.7-1.7,1.7H22.2z M136.4-79.2H22.2c-1.8,0-3.2,1.5-3.2,3.3v68c0,1.8,1.5,3.3,3.2,3.3h114.2c1.8,0,3.2-1.5,3.2-3.3v-68
				C139.7-77.7,138.2-79.2,136.4-79.2"/>
		</g>
		<g id="g2804" transform="translate(601.3748,250.2966)">
			<path id="path2806" class="st0" d="M88.1-10.7h4.8c1.4,0,2.5-1.1,2.5-2.5v-68c0-1.4-1.1-2.5-2.5-2.5H-21.4
				c-1.4,0-2.5,1.1-2.5,2.5v68c0,1.4,1.1,2.5,2.5,2.5h99.6"/>
		</g>
		<g id="g2808" transform="translate(603.0569,224.2853)">
			<path id="path2810" class="st1" d="M91.2-58.4H-23.1c-1.8,0-3.2,1.5-3.2,3.2v68c0,1.8,1.5,3.3,3.2,3.3h99.6
				c0.4,0,0.8-0.3,0.8-0.8c0-0.4-0.3-0.8-0.8-0.8h-99.6c-1,0-1.7-0.8-1.7-1.7v-68c0-1,0.8-1.7,1.7-1.7H91.2c1,0,1.7,0.8,1.7,1.7v68
				c0,1-0.8,1.7-1.7,1.7h-4.8c-0.4,0-0.8,0.3-0.8,0.8c0,0.4,0.3,0.8,0.8,0.8h4.8c1.8,0,3.2-1.5,3.2-3.3v-68
				C94.4-56.9,92.9-58.4,91.2-58.4"/>
		</g>
		<g id="g2812" transform="translate(595.9827,247.5905)">
			<path id="path2814" class="st0" d="M78.2-15.6h12.4c1.4,0,2.5-1.1,2.5-2.5v-68c0-1.4-1.1-2.5-2.5-2.5H-23.7
				c-1.4,0-2.5,1.1-2.5,2.5v68c0,1.4,1.1,2.5,2.5,2.5h85.3"/>
		</g>
		<g id="g2816" transform="translate(600.3513,221.5793)">
			<path id="path2818" class="st1" d="M86.2-63.3H-28c-1.8,0-3.2,1.5-3.2,3.3v68c0,1.8,1.5,3.2,3.2,3.2h85.3c0.4,0,0.8-0.3,0.8-0.8
				s-0.3-0.8-0.8-0.8H-28c-1,0-1.7-0.8-1.7-1.7v-68c0-1,0.8-1.7,1.7-1.7H86.2c1,0,1.7,0.8,1.7,1.7v68c0,1-0.8,1.7-1.7,1.7H73.8
				c-0.4,0-0.8,0.3-0.8,0.8s0.3,0.8,0.8,0.8h12.4c1.8,0,3.2-1.5,3.2-3.2v-68C89.4-61.9,88-63.3,86.2-63.3"/>
		</g>
		<g id="g2820" transform="translate(598.0979,219.1389)">
			<path id="path2822" class="st2" d="M82.1-67.8H-34.7c-0.7,0-1.2,0.5-1.2,1.2V3.9c0,0.7,0.5,1.2,1.2,1.2H82.1
				c0.7,0,1.2-0.5,1.2-1.2v-70.6C83.3-67.3,82.7-67.8,82.1-67.8"/>
		</g>
		<g id="g2824" transform="translate(588.8645,218.8737)">
			<path id="path2826" class="st1" d="M65.1-68.3h-89.3c-1.8,0-3.2,1.5-3.2,3.2v68c0,1.8,1.5,3.2,3.2,3.2h17c0.4,0,0.8-0.3,0.8-0.8
				c0-0.4-0.3-0.8-0.8-0.8h-17c-1,0-1.7-0.8-1.7-1.7v-68c0-1,0.8-1.7,1.7-1.7h89.3c0.4,0,0.8-0.3,0.8-0.8
				C65.9-68,65.5-68.3,65.1-68.3"/>
		</g>
		<g id="g2828" transform="translate(597.6453,218.8737)">
			<path id="path2830" class="st1" d="M81.2-68.3H67.2c-0.4,0-0.8,0.3-0.8,0.8c0,0.4,0.3,0.8,0.8,0.8h14.1c1,0,1.7,0.8,1.7,1.7v68
				c0,1-0.8,1.7-1.7,1.7H34c-0.4,0-0.8,0.3-0.8,0.8c0,0.4,0.3,0.8,0.8,0.8h47.2c1.8,0,3.2-1.5,3.2-3.2v-68
				C84.5-66.8,83-68.3,81.2-68.3"/>
		</g>
		<g id="g2832" transform="translate(578.738,244.6193)">
			<path id="path2834" class="st1" d="M46.5-21.1H30.2c-0.4,0-0.8,0.3-0.8,0.8c0,0.4,0.3,0.8,0.8,0.8h16.3c0.4,0,0.8-0.3,0.8-0.8
				C47.3-20.7,46.9-21.1,46.5-21.1"/>
		</g>
		<g id="g2836" transform="translate(572.5974,235.7556)">
			<path id="path2838" class="st3" d="M35.3-37.3c0-9.3-7.5-16.9-16.9-16.9c-9.3,0-16.9,7.5-16.9,16.9s7.5,16.9,16.9,16.9
				C27.7-20.5,35.3-28,35.3-37.3"/>
		</g>
		<g id="g2840" transform="translate(566.6501,241.4367)">
			<path id="path2842" class="st1" d="M24.4-26.9c-8.9,0-16.1-7.2-16.1-16.1s7.2-16.1,16.1-16.1S40.5-51.9,40.5-43
				S33.2-26.9,24.4-26.9 M24.4-60.6c-9.7,0-17.6,7.9-17.6,17.6s7.9,17.6,17.6,17.6C34.1-25.4,42-33.3,42-43S34.1-60.6,24.4-60.6"/>
		</g>
		<g id="g2844" transform="translate(572.5935,235.7487)">
			<path id="path2846" class="st4" d="M35.3-37.3H18.4v16.9C27.7-20.5,35.3-28,35.3-37.3"/>
		</g>
		<g id="g2848" transform="translate(566.9158,236.0143)">
			<path id="path2850" class="st1" d="M24.8-36.9h15.3c-0.4,8.3-7,15-15.3,15.4V-36.9z M40.9-38.4H24.1c-0.4,0-0.8,0.3-0.8,0.8v16.9
				c0,0.4,0.3,0.8,0.8,0.8c9.7,0,17.6-7.9,17.6-17.6C41.7-38,41.4-38.4,40.9-38.4"/>
		</g>
		<g id="g2852" transform="translate(581.2239,222.6071)">
			<path id="path2854" class="st4" d="M51.1-61.5c-0.6,0-1.1,0.5-1.1,1.1v23.4c0,0.6,0.5,1.1,1.1,1.1s1.1-0.5,1.1-1.1v-23.4
				C52.2-60.9,51.7-61.5,51.1-61.5"/>
		</g>
		<g id="g2856" transform="translate(581.2239,232.1848)">
			<path id="path2858" class="st1" d="M51.1-43.9c-1.5,0-2.6-1.2-2.6-2.6v-23.4c0-1.4,1.2-2.6,2.6-2.6c1.5,0,2.6,1.2,2.6,2.6v23.4
				C53.7-45.1,52.5-43.9,51.1-43.9 M51.1-45.4c0.6,0,1.1-0.5,1.1-1.1v-23.4c0-0.6-0.5-1.1-1.1-1.1S50-70.5,50-69.9v23.4
				C50-45.9,50.5-45.4,51.1-45.4"/>
		</g>
		<g id="g2860" transform="translate(585.0437,222.6071)">
			<path id="path2862" class="st4" d="M58.1-61.5c-0.6,0-1.1,0.5-1.1,1.1V-48c0,0.6,0.5,1.1,1.1,1.1s1.1-0.5,1.1-1.1v-12.4
				C59.2-60.9,58.7-61.5,58.1-61.5"/>
		</g>
		<g id="g2864" transform="translate(585.0437,228.2946)">
			<path id="path2866" class="st1" d="M58.1-51c-1.5,0-2.6-1.2-2.6-2.6V-66c0-1.4,1.2-2.6,2.6-2.6c1.5,0,2.6,1.2,2.6,2.6v12.4
				C60.7-52.2,59.6-51,58.1-51 M58.1-52.5c0.6,0,1.1-0.5,1.1-1.1V-66c0-0.6-0.5-1.1-1.1-1.1S57-66.6,57-66v12.4
				C57-53,57.5-52.5,58.1-52.5"/>
		</g>
		<g id="g2868" transform="translate(588.8645,222.6071)">
			<path id="path2870" class="st4" d="M65.1-61.5c-0.6,0-1.1,0.5-1.1,1.1v33.7c0,0.6,0.5,1.1,1.1,1.1s1.1-0.5,1.1-1.1v-33.7
				C66.2-60.9,65.7-61.5,65.1-61.5"/>
		</g>
		<g id="g2872" transform="translate(588.8645,235.8273)">
			<path id="path2874" class="st1" d="M65.1-37.2c-1.5,0-2.6-1.2-2.6-2.6v-33.7c0-1.5,1.2-2.6,2.6-2.6c1.5,0,2.6,1.2,2.6,2.6v33.7
				C67.7-38.4,66.6-37.2,65.1-37.2 M65.1-38.7c0.6,0,1.1-0.5,1.1-1.1v-33.7c0-0.6-0.5-1.1-1.1-1.1S64-74.2,64-73.5v33.7
				C64-39.2,64.5-38.7,65.1-38.7"/>
		</g>
		<g id="g2876" transform="translate(592.6843,222.6071)">
			<path id="path2878" class="st4" d="M72.1-61.5c-0.6,0-1.1,0.5-1.1,1.1v28.4c0,0.6,0.5,1.1,1.1,1.1s1.1-0.5,1.1-1.1v-28.4
				C73.2-60.9,72.7-61.5,72.1-61.5"/>
		</g>
		<g id="g2880" transform="translate(592.6843,233.9553)">
			<path id="path2882" class="st1" d="M72.1-40.6c-1.5,0-2.6-1.2-2.6-2.6v-28.4c0-1.5,1.2-2.6,2.6-2.6s2.6,1.2,2.6,2.6v28.4
				C74.8-41.8,73.6-40.6,72.1-40.6 M72.1-42.1c0.6,0,1.1-0.5,1.1-1.1v-28.4c0-0.6-0.5-1.1-1.1-1.1S71-72.3,71-71.7v28.4
				C71-42.6,71.5-42.1,72.1-42.1"/>
		</g>
		<g id="g2884" transform="translate(560.7043,227.0012)">
			<path id="path2886" class="st2" d="M13.4-53.4h40.7"/>
		</g>
		<g id="g2888" transform="translate(575.0735,226.7355)">
			<path id="path2890" class="st1" d="M39.8-53.9H-0.9c-0.4,0-0.8,0.3-0.8,0.8c0,0.4,0.3,0.8,0.8,0.8h40.7c0.4,0,0.8-0.3,0.8-0.8
				C40.6-53.5,40.2-53.9,39.8-53.9"/>
		</g>
		<g id="g2892" transform="translate(560.7043,225.0524)">
			<path id="path2894" class="st2" d="M13.4-57h40.7"/>
		</g>
		<g id="g2896" transform="translate(575.0735,224.7868)">
			<path id="path2898" class="st1" d="M39.8-57.5H-0.9c-0.4,0-0.8,0.3-0.8,0.8c0,0.4,0.3,0.8,0.8,0.8h40.7c0.4,0,0.8-0.3,0.8-0.8
				C40.6-57.1,40.2-57.5,39.8-57.5"/>
		</g>
		<g id="g2900" transform="translate(560.7043,223.1037)">
			<path id="path2902" class="st2" d="M13.4-60.5h23"/>
		</g>
		<g id="g2904" transform="translate(568.8235,222.8381)">
			<path id="path2906" class="st1" d="M28.3-61h-23c-0.4,0-0.8,0.3-0.8,0.8c0,0.4,0.3,0.8,0.8,0.8h23c0.4,0,0.8-0.3,0.8-0.8
				C29.1-60.7,28.8-61,28.3-61"/>
		</g>
		<g id="g2908" transform="translate(580.2058,240.7917)">
			<path id="path2910" class="st2" d="M49.2-28.1H90"/>
		</g>
		<g id="g2912" transform="translate(594.5759,240.5266)">
			<path id="path2914" class="st1" d="M75.6-28.6H34.9c-0.4,0-0.8,0.3-0.8,0.8c0,0.4,0.3,0.8,0.8,0.8h40.7c0.4,0,0.8-0.3,0.8-0.8
				C76.3-28.2,76-28.6,75.6-28.6"/>
		</g>
		<g id="g2916" transform="translate(580.2058,238.843)">
			<path id="path2918" class="st2" d="M49.2-31.7h23"/>
		</g>
		<g id="g2920" transform="translate(588.325,238.5773)">
			<path id="path2922" class="st1" d="M64.1-32.2h-23c-0.4,0-0.8,0.3-0.8,0.8c0,0.4,0.3,0.8,0.8,0.8h23c0.4,0,0.8-0.3,0.8-0.8
				C64.9-31.8,64.5-32.2,64.1-32.2"/>
		</g>
	</g>
</g>
</svg>
